<svg width="170" height="36" viewBox="0 0 170 36" fill="none" xmlns="http://www.w3.org/2000/svg">
<path d="M0.666748 34.7984L6.54508 0.72994H31.2341L30.0584 7.4172H13.9276L12.7519 14.4039H27.6207L26.445 21.1078H11.5763L10.4006 28.1111H26.5314L25.3558 34.7984H0.666748Z" fill="url(#paint0_linear_2431_3331)"/>
<path d="M54.3152 11.0104C54.4074 9.75719 54.0616 8.78682 53.2779 8.09924C52.5056 7.41166 51.2838 7.06787 49.6125 7.06787C48.506 7.06787 47.5609 7.20649 46.7771 7.48374C45.9933 7.7499 45.3767 8.12696 44.9272 8.61492C44.4776 9.09179 44.1953 9.64629 44.08 10.2784C43.9763 10.7775 44.0051 11.2211 44.1664 11.6092C44.3278 11.9974 44.6102 12.3412 45.0136 12.6406C45.4286 12.94 45.9415 13.2006 46.5523 13.4224C47.1748 13.6442 47.8721 13.8383 48.6443 14.0047L51.5489 14.6701C53.2318 15.036 54.6898 15.524 55.9231 16.1339C57.1679 16.7328 58.1765 17.4592 58.9487 18.3131C59.721 19.156 60.2512 20.1263 60.5393 21.2242C60.8275 22.3221 60.8505 23.5531 60.6085 24.9172C60.2397 27.0687 59.3579 28.9151 57.9632 30.4566C56.5801 31.9982 54.7705 33.1792 52.5344 33.9999C50.3099 34.8206 47.7223 35.2309 44.7716 35.2309C41.8209 35.2309 39.3139 34.8039 37.2507 33.95C35.1991 33.085 33.7122 31.7819 32.7901 30.0408C31.868 28.2996 31.6202 26.1038 32.0467 23.4533H40.2245C40.0977 24.5512 40.2418 25.4662 40.6567 26.1981C41.0832 26.93 41.7402 27.4845 42.6277 27.8616C43.5152 28.2387 44.5871 28.4272 45.8435 28.4272C46.9961 28.4272 48.0046 28.2775 48.8691 27.978C49.7451 27.6786 50.4424 27.2627 50.9611 26.7304C51.4913 26.1981 51.814 25.5881 51.9293 24.9006C52.0446 24.2684 51.9351 23.7195 51.6008 23.2537C51.2781 22.7879 50.7248 22.3831 49.941 22.0394C49.1688 21.6956 48.1545 21.385 46.8981 21.1078L43.3538 20.276C40.4262 19.5885 38.2074 18.4906 36.6975 16.9823C35.1991 15.4741 34.6689 13.428 35.1069 10.844C35.4757 8.72582 36.3863 6.87379 37.8386 5.28792C39.3024 3.70206 41.1524 2.47107 43.3884 1.59496C45.636 0.70776 48.1084 0.26416 50.8055 0.26416C53.5487 0.26416 55.854 0.713304 57.7212 1.61159C59.6 2.49879 60.9543 3.75196 61.7842 5.3711C62.6256 6.97915 62.8676 8.8589 62.5103 11.0104H54.3152Z" fill="url(#paint1_linear_2431_3331)"/>
<path d="M63.2365 34.7984L69.1148 0.72994H77.673L75.3216 14.4039H89.274L91.6254 0.72994H100.166L94.2879 34.7984H85.747L88.0984 21.1078H74.146L71.7946 34.7984H63.2365Z" fill="url(#paint2_linear_2431_3331)"/>
<path d="M135.929 18.2965C135.284 21.9673 134.016 25.0669 132.125 27.5954C130.247 30.1129 127.959 32.0203 125.262 33.3179C122.576 34.6154 119.689 35.2642 116.6 35.2642C113.338 35.2642 110.514 34.5655 108.128 33.1682C105.742 31.7708 104.007 29.7358 102.924 27.0631C101.852 24.3904 101.644 21.1466 102.301 17.3316C102.924 13.6609 104.174 10.5557 106.053 8.01606C107.944 5.47645 110.243 3.55234 112.952 2.24372C115.672 0.924014 118.588 0.26416 121.7 0.26416C124.939 0.26416 127.745 0.968374 130.12 2.3768C132.506 3.78523 134.235 5.83133 135.307 8.51511C136.379 11.1989 136.586 14.4593 135.929 18.2965ZM127.371 17.3316C127.728 15.1913 127.728 13.3892 127.371 11.9253C127.025 10.4614 126.345 9.35795 125.331 8.61492C124.316 7.8608 122.997 7.48374 121.371 7.48374C119.573 7.48374 117.948 7.91071 116.496 8.76464C115.055 9.60747 113.851 10.8385 112.882 12.4576C111.914 14.0656 111.24 16.0119 110.86 18.2965C110.468 20.459 110.456 22.2612 110.825 23.7028C111.205 25.1445 111.914 26.2314 112.952 26.9633C113.989 27.6842 115.309 28.0446 116.911 28.0446C118.697 28.0446 120.305 27.6287 121.735 26.797C123.164 25.9652 124.357 24.7509 125.313 23.1539C126.282 21.5569 126.967 19.6162 127.371 17.3316Z" fill="url(#paint3_linear_2431_3331)"/>
<path d="M138.073 34.7984L143.951 0.72994H158.578C161.229 0.72994 163.436 1.22344 165.2 2.21045C166.963 3.19746 168.214 4.57817 168.951 6.35256C169.689 8.12696 169.856 10.1842 169.453 12.5241C169.061 14.8863 168.179 16.9435 166.808 18.6957C165.447 20.4479 163.695 21.8065 161.552 22.7713C159.408 23.7361 156.97 24.2185 154.238 24.2185H145.231L146.354 17.7309H153.789C155.091 17.7309 156.215 17.5146 157.16 17.0821C158.117 16.6496 158.883 16.0452 159.46 15.2689C160.036 14.4926 160.416 13.5777 160.601 12.5241C160.774 11.4706 160.704 10.5612 160.393 9.796C160.082 9.01971 159.523 8.42085 158.716 7.99943C157.921 7.57801 156.884 7.3673 155.604 7.3673H151.386L146.631 34.7984H138.073Z" fill="url(#paint4_linear_2431_3331)"/>
<defs>
<linearGradient id="paint0_linear_2431_3331" x1="0.666748" y1="17.7642" x2="169.667" y2="17.7642" gradientUnits="userSpaceOnUse">
<stop stop-color="#FF6700"/>
</linearGradient>
<linearGradient id="paint1_linear_2431_3331" x1="30.629" y1="17.5978" x2="169.842" y2="17.5978" gradientUnits="userSpaceOnUse">
<stop stop-color="#FF6700"/>
<stop offset="0.538462" stop-color="#FFC6A0"/>
<stop offset="1" stop-color="white"/>
</linearGradient>
<linearGradient id="paint2_linear_2431_3331" x1="30.629" y1="17.5978" x2="169.842" y2="17.5978" gradientUnits="userSpaceOnUse">
<stop stop-color="#FF6700"/>
<stop offset="0.538462" stop-color="#FFC6A0"/>
<stop offset="1" stop-color="white"/>
</linearGradient>
<linearGradient id="paint3_linear_2431_3331" x1="30.629" y1="17.5978" x2="169.842" y2="17.5978" gradientUnits="userSpaceOnUse">
<stop stop-color="#FF6700"/>
<stop offset="0.538462" stop-color="#FFC6A0"/>
<stop offset="1" stop-color="white"/>
</linearGradient>
<linearGradient id="paint4_linear_2431_3331" x1="30.629" y1="17.5978" x2="169.842" y2="17.5978" gradientUnits="userSpaceOnUse">
<stop stop-color="#FF6700"/>
<stop offset="0.538462" stop-color="#FFC6A0"/>
<stop offset="1" stop-color="white"/>
</linearGradient>
</defs>
</svg>
