<svg
  width="24"
  height="24"
  viewBox="0 0 24 24"
  xmlns="http://www.w3.org/2000/svg"
>
  <path
    d="M18.0654 8.69639H15.9643V2.08925C15.9643 1.36247 15.3696 0.767822 14.6429 0.767822H9.35714C8.63036 0.767822 8.03571 1.36247 8.03571 2.08925V8.69639H5.93464C4.75857 8.69639 4.16393 10.1235 4.99643 10.956L11.0618 17.0214C11.5771 17.5368 12.4096 17.5368 12.925 17.0214L18.9904 10.956C19.8229 10.1235 19.2414 8.69639 18.0654 8.69639ZM2.75 21.9107C2.75 22.6375 3.34464 23.2321 4.07143 23.2321H19.9286C20.6554 23.2321 21.25 22.6375 21.25 21.9107C21.25 21.1839 20.6554 20.5893 19.9286 20.5893H4.07143C3.34464 20.5893 2.75 21.1839 2.75 21.9107Z"
  />
</svg>
