<svg width="24" height="24" viewBox="0 0 24 24" fill="none" xmlns="http://www.w3.org/2000/svg">
<path d="M8.00922 22C7.45922 22 6.98855 21.8043 6.59722 21.413C6.20588 21.0217 6.00988 20.5507 6.00922 20C6.00855 19.4493 6.20455 18.9787 6.59722 18.588C6.98988 18.1973 7.46055 18.0013 8.00922 18C8.55788 17.9987 9.02888 18.1947 9.42222 18.588C9.81555 18.9813 10.0112 19.452 10.0092 20C10.0072 20.548 9.81155 21.019 9.42222 21.413C9.03288 21.807 8.56188 22.0027 8.00922 22ZM18.0092 22C17.4592 22 16.9886 21.8043 16.5972 21.413C16.2059 21.0217 16.0099 20.5507 16.0092 20C16.0085 19.4493 16.2045 18.9787 16.5972 18.588C16.9899 18.1973 17.4605 18.0013 18.0092 18C18.5579 17.9987 19.0289 18.1947 19.4222 18.588C19.8155 18.9813 20.0112 19.452 20.0092 20C20.0072 20.548 19.8116 21.019 19.4222 21.413C19.0329 21.807 18.5619 22.0027 18.0092 22ZM6.20922 4H20.9592C21.3426 4 21.6342 4.171 21.8342 4.513C22.0342 4.855 22.0425 5.20067 21.8592 5.55L18.3092 11.95C18.1259 12.2833 17.8802 12.5417 17.5722 12.725C17.2642 12.9083 16.9265 13 16.5592 13H9.10922L8.00922 15H20.0092V17H8.00922C7.25922 17 6.69255 16.671 6.30922 16.013C5.92588 15.355 5.90922 14.7007 6.25922 14.05L7.60922 11.6L4.00922 4H2.00922V2H5.25922L6.20922 4Z" fill="white"/>
</svg>
