<svg width="169" height="36" viewBox="0 0 169 36" fill="none" xmlns="http://www.w3.org/2000/svg">
<path d="M0 34.6252L5.87834 0.556722H30.5674L29.3917 7.24398H13.2608L12.0852 14.2307H26.9539L25.7782 20.9346H10.9095L9.73383 27.9379H25.8647L24.689 34.6252H0Z" fill="url(#paint0_linear_2431_3330)"/>
<path d="M53.6485 10.8371C53.7407 9.58397 53.3949 8.6136 52.6111 7.92602C51.8389 7.23844 50.6171 6.89465 48.9458 6.89465C47.8393 6.89465 46.8941 7.03327 46.1104 7.31052C45.3266 7.57668 44.7099 7.95374 44.2604 8.4417C43.8109 8.91857 43.5285 9.47307 43.4132 10.1052C43.3095 10.6043 43.3383 11.0479 43.4997 11.436C43.6611 11.8241 43.9434 12.1679 44.3469 12.4674C44.7618 12.7668 45.2747 13.0274 45.8856 13.2492C46.508 13.471 47.2053 13.6651 47.9776 13.8314L50.8822 14.4968C52.565 14.8628 54.0231 15.3508 55.2564 15.9607C56.5012 16.5596 57.5097 17.286 58.282 18.1399C59.0542 18.9827 59.5844 19.9531 59.8726 21.051C60.1607 22.1489 60.1838 23.3799 59.9417 24.744C59.5729 26.8954 58.6912 28.7419 57.2965 30.2834C55.9134 31.8249 54.1037 33.006 51.8677 33.8267C49.6431 34.6473 47.0555 35.0577 44.1048 35.0577C41.1541 35.0577 38.6472 34.6307 36.584 33.7768C34.5323 32.9118 33.0455 31.6087 32.1234 29.8676C31.2013 28.1264 30.9535 25.9306 31.3799 23.2801H39.5577C39.431 24.378 39.575 25.2929 39.99 26.0249C40.4165 26.7568 41.0734 27.3113 41.9609 27.6884C42.8485 28.0654 43.9204 28.254 45.1767 28.254C46.3294 28.254 47.3379 28.1043 48.2024 27.8048C49.0783 27.5054 49.7757 27.0895 50.2944 26.5572C50.8246 26.0249 51.1473 25.4149 51.2626 24.7273C51.3778 24.0952 51.2683 23.5463 50.9341 23.0805C50.6113 22.6147 50.0581 22.2099 49.2743 21.8661C48.502 21.5223 47.4877 21.2118 46.2314 20.9346L42.6871 20.1028C39.7595 19.4152 37.5407 18.3173 36.0307 16.8091C34.5323 15.3009 34.0021 13.2548 34.4401 10.6708C34.809 8.5526 35.7195 6.70057 37.1718 5.11471C38.6357 3.52884 40.4856 2.29785 42.7217 1.42174C44.9693 0.534542 47.4416 0.0909424 50.1388 0.0909424C52.882 0.0909424 55.1872 0.540087 57.0544 1.43837C58.9332 2.32557 60.2875 3.57874 61.1174 5.19788C61.9588 6.80593 62.2009 8.68568 61.8436 10.8371H53.6485Z" fill="url(#paint1_linear_2431_3330)"/>
<path d="M62.5697 34.6252L68.448 0.556722H77.0062L74.6549 14.2307H88.6073L90.9586 0.556722H99.4995L93.6212 34.6252H85.0803L87.4316 20.9346H73.4792L71.1279 34.6252H62.5697Z" fill="url(#paint2_linear_2431_3330)"/>
<path d="M135.262 18.1233C134.617 21.794 133.349 24.8937 131.459 27.4222C129.58 29.9396 127.292 31.8471 124.595 33.1446C121.909 34.4422 119.022 35.0909 115.933 35.0909C112.671 35.0909 109.847 34.3923 107.461 32.9949C105.075 31.5976 103.341 29.5626 102.257 26.8899C101.185 24.2172 100.978 20.9734 101.635 17.1584C102.257 13.4876 103.508 10.3825 105.386 7.84284C107.277 5.30324 109.576 3.37912 112.285 2.0705C115.005 0.750796 117.921 0.0909424 121.033 0.0909424C124.272 0.0909424 127.079 0.795157 129.453 2.20359C131.839 3.61201 133.568 5.65812 134.64 8.34189C135.712 11.0257 135.919 14.2861 135.262 18.1233ZM126.704 17.1584C127.061 15.0181 127.061 13.2159 126.704 11.7521C126.358 10.2882 125.678 9.18473 124.664 8.4417C123.65 7.68758 122.33 7.31052 120.705 7.31052C118.907 7.31052 117.281 7.73749 115.829 8.59142C114.388 9.43426 113.184 10.6652 112.216 12.2844C111.248 13.8924 110.573 15.8387 110.193 18.1233C109.801 20.2858 109.789 22.0879 110.158 23.5296C110.539 24.9713 111.248 26.0581 112.285 26.7901C113.322 27.5109 114.642 27.8714 116.244 27.8714C118.031 27.8714 119.639 27.4555 121.068 26.6237C122.497 25.792 123.69 24.5776 124.647 22.9807C125.615 21.3837 126.301 19.443 126.704 17.1584Z" fill="url(#paint3_linear_2431_3330)"/>
<path d="M137.406 34.6252L143.284 0.556722H157.911C160.562 0.556722 162.769 1.05023 164.533 2.03724C166.296 3.02425 167.547 4.40495 168.285 6.17935C169.022 7.95374 169.189 10.0109 168.786 12.3509C168.394 14.7131 167.512 16.7703 166.141 18.5225C164.781 20.2747 163.029 21.6332 160.885 22.5981C158.741 23.5629 156.303 24.0453 153.572 24.0453H144.564L145.688 17.5577H153.122C154.424 17.5577 155.548 17.3414 156.493 16.9089C157.45 16.4764 158.217 15.872 158.793 15.0957C159.369 14.3194 159.75 13.4045 159.934 12.3509C160.107 11.2974 160.038 10.388 159.727 9.62279C159.415 8.84649 158.856 8.24763 158.049 7.82621C157.254 7.40479 156.217 7.19408 154.937 7.19408H150.719L145.964 34.6252H137.406Z" fill="url(#paint4_linear_2431_3330)"/>
<defs>
<linearGradient id="paint0_linear_2431_3330" x1="0" y1="17.5909" x2="169" y2="17.5909" gradientUnits="userSpaceOnUse">
<stop stop-color="#FF6700"/>
</linearGradient>
<linearGradient id="paint1_linear_2431_3330" x1="29.9622" y1="17.4246" x2="169.175" y2="17.4246" gradientUnits="userSpaceOnUse">
<stop stop-color="#FF6700"/>
<stop offset="1" stop-color="#1D1D1D"/>
</linearGradient>
<linearGradient id="paint2_linear_2431_3330" x1="29.9622" y1="17.4246" x2="169.175" y2="17.4246" gradientUnits="userSpaceOnUse">
<stop stop-color="#FF6700"/>
<stop offset="1" stop-color="#1D1D1D"/>
</linearGradient>
<linearGradient id="paint3_linear_2431_3330" x1="29.9622" y1="17.4246" x2="169.175" y2="17.4246" gradientUnits="userSpaceOnUse">
<stop stop-color="#FF6700"/>
<stop offset="1" stop-color="#1D1D1D"/>
</linearGradient>
<linearGradient id="paint4_linear_2431_3330" x1="29.9622" y1="17.4246" x2="169.175" y2="17.4246" gradientUnits="userSpaceOnUse">
<stop stop-color="#FF6700"/>
<stop offset="1" stop-color="#1D1D1D"/>
</linearGradient>
</defs>
</svg>
